<?xml version="1.0" standalone="no"?>
<!DOCTYPE svg PUBLIC "-//W3C//DTD SVG 20010904//EN"
 "http://www.w3.org/TR/2001/REC-SVG-20010904/DTD/svg10.dtd">
<svg version="1.0" xmlns="http://www.w3.org/2000/svg"
 width="895.000000pt" height="895.000000pt" viewBox="0 0 895.000000 895.000000"
 preserveAspectRatio="xMidYMid meet">
<metadata>
Created by potrace 1.14, written by Peter Selinger 2001-2017
</metadata>
<g transform="translate(0.000000,895.000000) scale(0.100000,-0.100000)"
fill="#000000" stroke="none">
<path d="M4199 8946 c-2 -2 -47 -6 -100 -10 -53 -4 -107 -9 -120 -11 -13 -2
-67 -9 -119 -15 -138 -17 -413 -73 -580 -119 -1104 -304 -2062 -1036 -2653
-2026 -71 -120 -212 -392 -256 -495 -185 -435 -289 -829 -347 -1310 -29 -235
-25 -781 6 -1024 77 -597 254 -1141 536 -1643 156 -279 387 -602 595 -829 227
-250 556 -534 809 -700 41 -27 77 -52 80 -55 15 -18 327 -192 465 -260 485
-236 947 -366 1540 -434 115 -13 672 -13 805 1 200 20 224 23 355 45 914 154
1755 588 2410 1244 146 147 180 184 280 305 162 195 289 375 404 570 34 58 66
112 71 120 5 8 45 85 88 170 254 503 416 1082 459 1641 10 132 10 616 0 734
-19 229 -65 506 -121 726 -291 1148 -1014 2122 -2038 2745 -130 80 -408 221
-566 287 -380 161 -866 287 -1247 322 -38 4 -81 9 -95 12 -29 6 -655 15 -661
9z"/>
</g>
</svg>
