<?xml version="1.0" standalone="no"?>
<!DOCTYPE svg PUBLIC "-//W3C//DTD SVG 20010904//EN"
 "http://www.w3.org/TR/2001/REC-SVG-20010904/DTD/svg10.dtd">
<svg version="1.0" xmlns="http://www.w3.org/2000/svg"
 width="1000.000000pt" height="1000.000000pt" viewBox="0 0 1000.000000 1000.000000"
 preserveAspectRatio="xMidYMid meet">
<metadata>
Created by potrace 1.14, written by Peter Selinger 2001-2017
</metadata>
<g transform="translate(0.000000,1000.000000) scale(0.100000,-0.100000)"
fill="#000000" stroke="none">
<path d="M2515 7977 c-399 -243 -617 -612 -591 -1001 6 -96 18 -172 29 -183 3
-2 37 9 76 25 227 95 398 267 485 485 63 157 70 203 70 442 0 121 -4 229 -9
241 -10 21 -10 21 -60 -9z"/>
<path d="M2581 7020 c-181 -91 -331 -222 -414 -361 -73 -124 -109 -292 -93
-440 10 -94 13 -97 83 -69 371 148 563 390 563 710 0 98 -16 210 -30 210 -5 0
-53 -23 -109 -50z"/>
<path d="M1676 6971 c-108 -162 -186 -368 -205 -544 -29 -262 69 -566 247
-767 l38 -43 46 79 c195 342 216 724 59 1100 -38 91 -113 228 -130 239 -5 3
-30 -26 -55 -64z"/>
<path d="M4185 6999 c-340 -31 -623 -218 -769 -506 -101 -201 -113 -508 -29
-723 85 -216 276 -478 598 -820 125 -133 290 -324 368 -427 112 -147 210 -331
243 -458 26 -96 26 -309 1 -418 -38 -162 -135 -305 -245 -361 -154 -78 -353
-74 -478 9 -98 64 -151 172 -214 439 -34 145 -59 208 -98 249 -40 42 -75 57
-133 57 -101 0 -175 -57 -233 -180 -29 -61 -31 -72 -31 -185 0 -113 2 -124 33
-195 67 -156 191 -279 367 -365 180 -88 325 -117 570 -117 658 2 1140 344
1241 880 20 107 20 302 1 402 -40 203 -142 406 -312 625 -80 103 -138 167
-418 463 -266 281 -335 361 -423 493 -123 184 -167 312 -167 479 1 169 37 274
127 362 89 88 233 115 342 64 95 -44 144 -138 184 -355 44 -237 94 -311 210
-311 75 0 121 20 182 81 48 48 60 67 79 129 18 59 21 88 17 155 -14 216 -175
384 -461 480 -139 46 -380 70 -552 54z"/>
<path d="M7184 6999 c-641 -34 -1128 -199 -1399 -473 -172 -173 -239 -331
-239 -561 0 -99 4 -132 23 -184 85 -244 319 -361 586 -296 90 23 198 113 236
198 19 42 24 69 24 142 0 80 -3 95 -28 137 -34 59 -77 89 -132 96 -41 4 -51 0
-130 -54 -75 -51 -92 -58 -143 -62 -71 -5 -116 21 -150 88 -21 40 -23 56 -20
135 3 69 10 100 28 135 31 61 131 162 212 216 179 119 503 229 791 269 l47 6
0 -1509 c0 -1688 -5 -1569 71 -1656 71 -80 222 -119 386 -97 141 18 221 67
264 163 l24 53 3 1524 2 1524 118 -7 c206 -12 422 -51 552 -99 58 -21 135 -64
187 -103 17 -13 45 -24 61 -24 72 0 127 136 102 255 -21 102 -70 135 -225 154
-234 27 -967 45 -1251 30z"/>
<path d="M2498 6181 c-281 -157 -457 -355 -537 -600 -44 -134 -51 -351 -11
-351 34 0 237 111 313 172 221 175 347 445 347 739 0 65 -3 89 -12 89 -7 0
-52 -22 -100 -49z"/>
<path d="M1335 5808 c-8 -138 8 -376 36 -512 39 -193 118 -356 223 -460 61
-61 147 -113 166 -101 18 11 69 122 85 182 21 80 19 204 -5 299 -26 103 -102
257 -181 368 -60 84 -292 336 -309 336 -5 0 -11 -51 -15 -112z"/>
<path d="M2308 5240 c-197 -164 -321 -330 -380 -506 -18 -55 -23 -90 -22 -174
0 -112 13 -160 69 -255 l26 -46 62 33 c92 49 212 173 264 273 99 192 130 416
97 700 -4 30 -10 55 -14 55 -4 0 -50 -36 -102 -80z"/>
<path d="M1449 4678 c-8 -40 -13 -138 -13 -218 0 -130 3 -154 27 -227 45 -133
124 -226 240 -278 96 -42 102 -42 126 14 124 289 19 566 -282 745 -34 20 -67
36 -73 36 -7 0 -18 -31 -25 -72z"/>
<path d="M2287 4323 c-207 -185 -309 -390 -278 -564 11 -66 46 -150 78 -188
l20 -25 78 44 c91 53 190 153 229 232 39 81 59 188 52 284 -8 108 -61 294 -84
294 -4 0 -47 -35 -95 -77z"/>
<path d="M1490 3884 c1 -25 34 -147 56 -206 83 -218 266 -351 447 -324 l48 7
-6 37 c-25 151 -54 218 -133 304 -64 68 -144 120 -243 154 -78 27 -169 42
-169 28z"/>
<path d="M2331 3568 c-71 -27 -142 -97 -164 -163 -19 -55 -22 -161 -6 -218 9
-33 13 -37 32 -31 129 39 220 156 233 295 8 85 -1 139 -24 138 -9 0 -41 -9
-71 -21z"/>
<path d="M1715 3298 c27 -89 115 -193 201 -240 61 -33 152 -58 212 -58 40 0
43 2 36 23 -30 99 -104 188 -193 236 -61 32 -167 61 -229 61 -30 0 -33 -2 -27
-22z"/>
<path d="M2268 2933 c22 -105 25 -143 25 -343 1 -205 -1 -237 -26 -362 -31
-155 -34 -210 -12 -228 37 -31 101 39 136 149 17 52 22 100 26 231 6 192 -9
315 -56 461 -30 92 -85 199 -107 206 -7 2 -1 -41 14 -114z"/>
</g>
</svg>
