<?xml version="1.0" standalone="no"?>
<!DOCTYPE svg PUBLIC "-//W3C//DTD SVG 20010904//EN"
 "http://www.w3.org/TR/2001/REC-SVG-20010904/DTD/svg10.dtd">
<svg version="1.0" xmlns="http://www.w3.org/2000/svg"
 width="894.000000pt" height="894.000000pt" viewBox="0 0 894.000000 894.000000"
 preserveAspectRatio="xMidYMid meet">
<metadata>
Created by potrace 1.14, written by Peter Selinger 2001-2017
</metadata>
<g transform="translate(0.000000,894.000000) scale(0.100000,-0.100000)"
fill="#000000" stroke="none">
<path d="M5773 6978 c-6 -7 -53 -97 -107 -199 -108 -208 -193 -345 -258 -415
-24 -26 -124 -117 -223 -203 -315 -274 -749 -698 -1111 -1087 -405 -435 -602
-815 -645 -1246 -29 -297 45 -623 202 -890 17 -28 29 -54 27 -59 -2 -5 -43
-45 -93 -89 -120 -108 -276 -211 -362 -239 -41 -14 -84 -36 -108 -57 -39 -35
-40 -36 -20 -51 15 -11 37 -14 91 -10 149 11 311 104 491 283 101 101 123 117
225 169 718 367 1128 682 1284 988 101 197 133 364 164 867 18 283 49 593 76
770 67 441 184 905 343 1363 22 64 39 117 37 117 -2 0 -8 -6 -13 -12z m-1191
-2410 c-102 -197 -207 -401 -377 -733 -65 -126 -178 -346 -252 -488 -73 -142
-133 -262 -133 -267 0 -5 -4 -11 -10 -15 -35 -22 143 374 337 745 135 261 510
930 520 930 2 0 -36 -78 -85 -172z"/>
<path d="M2215 6396 c-117 -29 -112 -24 -925 -848 -426 -430 -840 -849 -919
-930 l-145 -148 145 -147 c79 -82 492 -499 916 -929 844 -854 819 -831 961
-856 181 -31 364 68 444 239 63 134 46 317 -39 431 -21 27 -294 309 -608 626
l-570 576 -115 -73 c-63 -40 -133 -83 -155 -97 -22 -13 293 313 701 726 440
445 751 767 766 794 46 81 61 143 56 244 -3 76 -9 102 -34 156 -89 187 -285
284 -479 236z"/>
<path d="M6530 6394 c-231 -62 -363 -307 -291 -543 15 -48 36 -89 69 -131 26
-33 369 -385 762 -782 393 -397 708 -718 700 -713 -8 5 -78 49 -155 97 l-140
88 -564 -570 c-310 -314 -581 -592 -602 -618 -64 -77 -83 -138 -84 -267 0
-106 1 -113 34 -180 85 -173 263 -268 442 -237 138 24 145 30 610 499 837 844
1409 1425 1409 1433 0 8 -1775 1808 -1821 1847 -95 81 -242 111 -369 77z"/>
</g>
</svg>
