<?xml version="1.0" standalone="no"?>
<!DOCTYPE svg PUBLIC "-//W3C//DTD SVG 20010904//EN"
 "http://www.w3.org/TR/2001/REC-SVG-20010904/DTD/svg10.dtd">
<svg version="1.0" xmlns="http://www.w3.org/2000/svg"
 width="1000.000000pt" height="1000.000000pt" viewBox="0 0 1000.000000 1000.000000"
 preserveAspectRatio="xMidYMid meet">
<metadata>
Created by potrace 1.14, written by Peter Selinger 2001-2017
</metadata>
<g transform="translate(0.000000,1000.000000) scale(0.100000,-0.100000)"
fill="#000000" stroke="none">
<path d="M4685 9604 c-493 -45 -911 -143 -1365 -321 -142 -55 -458 -208 -605
-292 -560 -320 -1107 -822 -1487 -1367 -405 -581 -660 -1228 -778 -1979 -47
-301 -47 -946 0 -1248 164 -1053 606 -1922 1346 -2647 470 -460 1014 -805
1635 -1035 358 -133 751 -225 1159 -271 192 -21 841 -15 1020 10 1032 146
1905 553 2621 1223 850 795 1358 1847 1450 3006 17 219 7 678 -20 885 -120
927 -498 1769 -1100 2454 -138 157 -383 397 -531 520 -682 567 -1517 927
-2421 1043 -123 15 -532 36 -684 34 -49 -1 -157 -8 -240 -15z m2565 -1454 c53
-27 76 -71 59 -112 -7 -16 -28 -41 -48 -54 -132 -90 -147 -105 -269 -271 -32
-43 -89 -148 -113 -209 -37 -93 -98 -278 -104 -315 -4 -24 -16 -78 -26 -119
-10 -41 -21 -95 -24 -119 -3 -23 -7 -46 -9 -50 -6 -9 -15 -120 -21 -266 -3
-66 -8 -145 -12 -175 -4 -30 -6 -741 -4 -1580 2 -839 0 -1801 -4 -2138 l-8
-614 -46 -60 c-25 -34 -53 -72 -61 -84 -8 -13 -51 -75 -95 -140 -44 -64 -94
-137 -111 -163 -45 -66 -71 -88 -92 -74 -16 9 -17 153 -19 2159 -2 2353 3
2173 -62 2464 -56 256 -89 329 -198 436 -86 85 -199 148 -323 180 -93 24 -117
26 -210 21 -116 -7 -226 -32 -310 -70 -30 -15 -77 -35 -105 -46 -107 -41 -183
-74 -253 -107 -40 -19 -76 -34 -79 -34 -18 0 -419 -188 -736 -346 -320 -159
-392 -207 -551 -368 -95 -96 -170 -197 -194 -261 -6 -16 -16 -64 -23 -106 -24
-161 32 -371 135 -504 62 -80 196 -232 258 -291 87 -85 310 -277 405 -349 223
-170 434 -450 472 -625 24 -110 36 -212 35 -300 -2 -148 -46 -243 -169 -365
-77 -76 -98 -91 -203 -144 -145 -73 -230 -108 -302 -125 -36 -9 -108 -28 -160
-42 -139 -39 -347 -38 -625 5 -110 16 -220 35 -245 40 -25 6 -62 10 -82 11
-31 0 -38 -4 -38 -19 0 -30 27 -136 60 -241 47 -144 79 -333 59 -345 -7 -5
-45 28 -98 83 -111 117 -114 121 -245 287 -60 77 -115 145 -121 152 -5 7 -25
34 -43 60 -17 26 -48 71 -66 98 -19 28 -54 86 -76 129 -44 83 -47 118 -15 160
14 19 18 19 167 2 84 -9 187 -21 228 -26 232 -29 732 -55 844 -45 213 19 394
60 475 108 104 61 181 216 181 364 0 88 -38 213 -86 285 -19 27 -34 52 -34 55
0 2 -40 51 -89 107 -100 115 -234 236 -396 356 -60 45 -137 105 -170 133 -108
93 -283 277 -344 365 -34 48 -66 93 -72 100 -20 24 -81 164 -101 231 -25 88
-35 261 -18 332 65 275 220 446 655 725 50 31 99 66 111 76 11 10 23 18 27 18
4 0 45 24 91 54 111 72 456 281 526 319 30 16 62 35 70 42 8 6 47 29 85 50 39
21 115 63 170 93 55 30 127 69 160 87 33 17 99 53 147 78 124 66 419 214 573
287 72 33 162 76 200 95 211 100 610 277 755 335 25 10 115 46 200 80 299 118
355 140 365 140 5 0 50 15 100 34 97 36 235 84 248 85 4 1 26 -8 47 -19z"/>
</g>
</svg>
