<?xml version="1.0" standalone="no"?>
<!DOCTYPE svg PUBLIC "-//W3C//DTD SVG 20010904//EN"
 "http://www.w3.org/TR/2001/REC-SVG-20010904/DTD/svg10.dtd">
<svg version="1.0" xmlns="http://www.w3.org/2000/svg"
 width="1000.000000pt" height="1000.000000pt" viewBox="0 0 1000.000000 1000.000000"
 preserveAspectRatio="xMidYMid meet">
<metadata>
Created by potrace 1.14, written by Peter Selinger 2001-2017
</metadata>
<g transform="translate(0.000000,1000.000000) scale(0.100000,-0.100000)"
fill="#000000" stroke="none">
<path d="M7375 6507 c-22 -34 -35 -84 -35 -134 0 -55 18 -56 55 -4 34 50 46
102 31 132 -16 32 -32 34 -51 6z"/>
<path d="M7256 6365 c-35 -35 -33 -119 5 -211 20 -47 21 -57 10 -81 l-13 -28
-14 53 c-28 109 -68 144 -94 83 -18 -44 -3 -115 37 -174 31 -46 33 -53 22 -81
-20 -52 -27 -50 -40 7 -16 73 -49 132 -74 132 -52 0 -39 -130 20 -208 l33 -43
-21 -34 -21 -33 -16 59 c-18 66 -41 114 -63 132 -33 28 -64 -19 -51 -75 11
-45 55 -121 80 -138 l24 -15 -23 -35 c-27 -42 -35 -43 -43 -7 -21 98 -51 152
-85 152 -56 0 -35 -137 32 -206 l29 -30 -33 -37 -33 -38 -12 74 c-7 40 -22 88
-33 106 -20 34 -21 34 -40 14 -41 -41 -34 -134 17 -208 l25 -38 -27 -28 c-15
-16 -29 -28 -30 -26 -1 1 -6 29 -9 61 -8 63 -28 120 -46 132 -6 3 -20 -3 -32
-14 -31 -32 -29 -114 6 -183 l26 -54 -22 -32 c-12 -18 -25 -33 -28 -33 -3 0
-9 35 -12 79 -6 87 -19 121 -46 121 -49 0 -60 -140 -17 -220 16 -29 8 -56 -22
-84 l-21 -18 0 53 c1 67 -16 135 -36 143 -19 7 -55 -39 -56 -73 -4 -58 2 -88
25 -132 l23 -45 -23 -29 c-13 -16 -25 -27 -27 -25 -5 5 -16 82 -16 117 -2 60
-63 61 -80 0 -12 -44 -5 -138 13 -172 9 -16 12 -34 7 -39 -164 -212 -253 -349
-357 -551 -70 -137 -176 -392 -186 -447 -5 -29 16 -17 36 20 106 201 186 313
315 442 218 217 412 317 747 385 142 29 198 47 124 40 -25 -2 -76 -7 -115 -10
-349 -31 -636 -185 -868 -465 -20 -25 -37 -40 -37 -35 0 38 267 450 347 536
23 25 26 26 66 14 72 -21 176 2 192 43 14 37 -69 55 -167 37 -24 -5 -22 4 7
39 23 28 25 29 63 18 74 -22 173 -10 206 26 15 18 15 20 -3 36 -22 20 -89 27
-144 14 -22 -5 -41 -7 -43 -5 -2 2 11 21 29 42 32 37 33 38 63 22 47 -24 99
-30 154 -17 46 11 82 42 67 57 -17 16 -88 30 -145 28 l-66 -3 31 28 c31 28 32
28 75 13 92 -32 246 23 191 69 -11 9 -43 12 -100 11 -77 -2 -82 0 -74 16 20
37 34 41 87 25 68 -21 148 -11 182 23 l26 26 -23 18 c-19 15 -35 17 -103 13
-89 -6 -88 -8 -35 53 l19 22 38 -20 c90 -47 237 -24 214 34 -9 24 -55 36 -130
34 -38 -1 -69 2 -70 8 -2 6 4 20 14 33 17 22 18 22 52 5 25 -13 57 -18 108
-17 62 0 76 3 95 23 l22 22 -24 20 c-21 17 -94 26 -163 20 -22 -3 -30 13 -15
32 10 14 21 15 77 6 56 -10 73 -9 120 7 46 16 55 23 58 46 2 19 -2 28 -17 33
-20 6 -112 0 -164 -11 -27 -6 -28 -4 -18 15 7 12 17 21 24 21 117 5 209 41
226 90 5 16 7 31 4 34 -14 13 -77 5 -133 -18 -41 -17 -60 -21 -60 -12 0 25 26
44 70 50 59 9 123 47 149 90 53 85 -26 87 -131 4 -21 -16 -38 -25 -38 -18 0
24 22 50 55 66 65 31 127 142 104 187 -12 22 -32 13 -86 -43 l-40 -42 -12 59
c-15 79 -34 98 -65 68z"/>
<path d="M3491 6188 c-71 -10 -182 -57 -251 -107 -164 -119 -244 -364 -185
-567 42 -144 158 -317 356 -529 154 -165 279 -326 331 -429 46 -91 61 -152 60
-246 -2 -227 -114 -364 -297 -362 -80 0 -120 15 -173 65 -36 35 -59 90 -92
222 -31 122 -53 163 -97 182 -100 41 -203 -55 -204 -191 -2 -155 80 -275 243
-355 106 -52 184 -68 328 -65 152 2 215 10 297 38 289 98 446 290 460 563 14
259 -73 427 -401 773 -275 290 -353 401 -382 542 -40 193 60 360 209 345 92
-8 123 -49 167 -221 42 -168 60 -192 139 -187 96 6 163 99 156 216 -4 60 -56
166 -98 197 -44 34 -121 72 -196 98 -70 23 -261 33 -370 18z"/>
<path d="M5257 6194 c-1 -1 -31 -5 -65 -8 -222 -23 -458 -101 -598 -197 -76
-52 -153 -139 -191 -215 -34 -70 -36 -78 -36 -181 -1 -89 3 -116 20 -153 25
-56 70 -103 125 -132 56 -29 193 -33 249 -6 50 24 106 89 119 139 20 72 -7
157 -58 183 -35 17 -62 13 -113 -20 -51 -32 -102 -41 -134 -24 -30 16 -57 83
-52 127 10 83 113 189 242 249 72 33 211 79 268 89 17 4 52 11 76 16 24 5 45
8 47 6 2 -2 6 -407 9 -901 3 -575 8 -911 15 -936 19 -72 95 -112 211 -111 123
0 201 46 213 124 4 23 9 442 12 932 3 489 7 891 10 894 8 9 228 -19 304 -39
41 -10 110 -37 153 -59 78 -41 100 -43 124 -12 20 26 27 99 14 143 -19 63 -62
77 -262 84 -159 5 -698 12 -702 8z"/>
<path d="M7543 5501 c-63 -109 -65 -116 -45 -134 9 -8 132 -83 272 -167 280
-169 350 -212 350 -220 0 -10 -224 -153 -375 -240 -62 -36 -250 -152 -258
-160 -9 -8 23 -76 75 -158 l34 -52 437 262 436 263 0 80 0 80 -67 41 c-192
118 -623 381 -664 406 -27 15 -70 41 -97 57 l-48 29 -50 -87z"/>
<path d="M2220 5349 c-206 -126 -399 -244 -427 -262 l-53 -32 0 -80 0 -80 78
-46 c42 -25 234 -141 427 -258 192 -116 354 -211 360 -211 14 0 64 68 100 139
26 50 27 55 11 66 -9 7 -138 86 -287 176 -149 90 -287 178 -307 195 l-35 30
321 194 c177 106 322 198 322 204 0 19 -111 196 -123 196 -7 0 -181 -104 -387
-231z"/>
</g>
</svg>
